<?xml version="1.0" encoding="utf-8"?>
<!-- Generator: Adobe Illustrator 18.1.0, SVG Export Plug-In . SVG Version: 6.00 Build 0)  -->
<svg version="1.1" id="Capa_1" xmlns="http://www.w3.org/2000/svg" xmlns:xlink="http://www.w3.org/1999/xlink" x="0px" y="0px"
	 viewBox="0 0 268.5 249" enable-background="new 0 0 268.5 249" xml:space="preserve">
<rect fill="#1D3C71" width="268.5" height="249"/>
<g>
	<path fill="#FFFFFF" d="M74.1,192.9c-0.1-2.1-0.9-3.9-2.5-5.5c-1.6-1.7-3.9-2.8-6.9-3.3c2.3-0.9,4.1-2,5.3-3.5
		c0.8-0.9,1.3-1.8,1.6-3c0.1-0.6,0.2-1.2,0.2-1.9c0-2.9-1.4-5.3-4.4-6.8c-3.1-1.5-7.7-2.3-13.8-2.3h-18v10.9v15.2v10.9h20.3
		c6,0,10.5-0.8,13.7-2.6c3.1-1.7,4.5-4.5,4.5-7.9C74.1,193.2,74.1,193,74.1,192.9z M49.4,173.6h3.1c2.5,0,4.2,0.4,5.3,0.9
		c0.9,0.6,1.4,1.6,1.4,3.1v0.1c0,1.5-0.6,2.5-1.4,3.2c-1.1,0.5-2.9,0.8-5.5,0.8h-2.9v-4V173.6z M60.1,193c0,1.5-0.5,2.5-1.8,3.1
		c-1,0.6-3.2,1-5.8,1h-3.1v-4.2v-4.3h3.4c2.5,0,4.5,0.3,5.5,1c1.2,0.6,1.8,1.7,1.8,3.3C60.1,193,60.1,193,60.1,193z"/>
	<path fill="#E40520" d="M88.8,123.5c-1.1,0.7-3,8.1-3.8,8.7c-0.8,0.6-4.2,0.1-2.5-6c2.3-8.8,28.4-103.8,30.2-109.6
		c0.5-1.6,3.1-3.8,6.6-5.6c0.8-0.4,4.4-2,5.4-2.3c1.9-0.7,4-1.2,6-1.6c6.6-1.1,12.7,0,14.1,6.2c0,0-17.3,69.3-17.7,70.3
		c-0.1,0.3-0.7,0.7-1.2,0.3c-1.2-0.8-7.7,16.3-7.7,16.3s-0.2,3.3-1.4,7.8c-3.4,12.9-10.1,35.8-11.2,39c-0.5,1.3-1.6,4.9-3.2,3.7
		c-1.2-1-2.2,1.2-4.2,1.5c-1.1,0.1-2-0.5-1.5-2.2c0.3-1.1,1.2-12,1.5-13.7c-1.1-0.2-2,0.3-2,0.3s-0.5,0.3-1.3,0.8
		c-2.6,1.7-4.2,1.6-5.3-0.4c-1-1.8,2.7-11,1.4-12.6C89.6,122.7,89.9,122.9,88.8,123.5z"/>
	<polygon fill="#FFFFFF" points="157.3,177.7 157.3,185.4 149.7,177.7 139.2,167 126.6,167 126.6,177.7 126.6,192.7 126.6,203.1 
		126.6,203.5 140.3,203.5 140.3,192.7 140.3,185.2 147.7,192.7 158.4,203.5 171,203.5 171,192.7 171,177.7 171,167 157.3,167 	"/>
	<path fill="#FFFFFF" d="M119.1,192.7l-7.5-15l-5.4-10.8H91.5l-5.4,10.8l-7.6,15l-5.4,10.8h13.8l2.8-6.3h18.1l2.7,6.3h13.8h0.2
		l-0.2-0.4L119.1,192.7z M93.3,190.1l5.5-12.3l0.5-1.1l0.5,1.1l5.5,12.3H93.3z"/>
	<path fill="#FFFFFF" d="M196.4,181.8c-2.7-1.2-4.4-2-5-2.6c-0.6-0.5-1-1-1-1.7v-0.1c0-0.8,0.4-1.4,1-1.7c0.9-0.5,1.9-0.7,3.4-0.7
		c1.9,0,3.7,0.3,5.6,1.2c0.9,0.2,1.7,0.7,2.7,1.2c1.3,0.7,2.6,1.5,4.1,2.4v-2.4V170c-2.3-1.5-4.8-2.4-7.3-3.2c-2.4-0.7-5.4-1-8.3-1
		c-4.8,0-8.7,1.1-11.8,3.2c-2.9,2.1-4.6,4.9-4.6,8.2c0,0.1,0,0.2,0,0.2c0.1,2.1,0.9,4,2.5,5.6c1.6,1.8,4.4,3.6,8.3,5.3
		c0.4,0.1,1,0.5,1.9,1c3.1,1.3,4.6,2.3,4.6,3.2v0.1c0,0.8-0.4,1.4-1.3,1.9c-0.8,0.4-2.1,0.5-3.7,0.5c-1.6,0-3.5-0.3-5.6-1
		c-1.3-0.3-2.6-0.8-3.9-1.4c-0.9-0.4-1.8-0.9-2.7-1.3v1.3v8.8c2.3,1.1,4.8,1.8,7.3,2.1c2.2,0.5,4.7,0.8,7.2,0.8
		c6,0,10.8-0.8,14.1-2.8c3.1-2,4.7-4.7,4.7-8.3c0-0.2,0-0.4,0-0.6c-0.1-2-0.7-3.8-2.1-5.3C205.1,185.9,201.8,183.9,196.4,181.8z"/>
	<polygon fill="#FFFFFF" points="226.2,174.9 226.2,166.9 211.8,166.9 211.8,178.5 	"/>
	<polygon fill="#FFFFFF" points="211.8,203.6 226.3,203.6 226.3,179.6 211.8,183.3 	"/>
	<path fill="#008F72" d="M184.9,97.4c-0.4-0.9-0.9-4.4-5.2-10.1c-5-6.6-10.6-8.6-14.9-11.7c-4-2.9-7.9-5.2-7.9-5.2
		c-3.8-1.6-9.7-3.6-14-3.2c-4.3,0.4-6.9,2.3-7.6,5.9c-0.7,3.6-0.5,7,1.2,10.6c1.6,3.6,1.6,5.1,3.8,7.6c1,1.1,1,1.4,3.3,1.3
		c4-0.2,6.1-0.2,9.2,1.9c3.1,2.2,3.8,3.4,4.5,5c0.7,1.7,1.2,7.5,0.2,10.4c-0.9,2.9-4.9,8.3-9.6,11.4c-3.2,2.1-6.3,2.9-8.8,3.6
		c0,0-10.1,1.8-10.9,2.7c-0.7,0.8-1.3,2-0.7,3.1c0.6,1.1,2.5,0.6,3.2,1.9c0.7,1.3-0.2,2.1-0.4,2.7c-0.2,0.6-2,0.8-2.6,1.2
		c-0.5,0.4-0.8,1-0.5,1.6c0.4,0.6,4.5-0.4,5.8-0.7c1.2-0.2,5.4-1.2,6.1-1c0.7,0.3,0.2,0.8-0.1,1.2c-0.1,0.2-0.7,0.4-1.4,0.7
		c0,0,0-0.1,0-0.1s-0.1,0.1-0.4,0.2c-1.1,0.4-2.3,0.8-2.6,1.1c-0.1,0.1-0.3,0.2-0.4,0.3c-1.4,0.7-2.7,1.3-3.2,1.4
		c0.6-0.1,1.9-0.3,3.1,0.3c0.6,0.5,1.3,0.3,1.3,0.9c0,1.1,0.2,0.7-0.9,1.5c-1.1,0.7-1.8,0.4-2.4,1.1c-0.6,0.7-1.1,1.1-0.9,1.7
		c0.2,0.6,5.7-0.7,7.9-1.1c0,0,12.1-2.3,14.9-3.5c2.8-1.1,7.6-2.7,10.3-4.2c1.8-0.7,3.4-1.5,4.7-2.3c6.8-4.1,8.6-5.4,12.7-11.5
		c2.9-4.3,4.1-7.6,4.7-11.3C186.6,111.7,186.2,100.1,184.9,97.4z"/>
	<path fill="#008F72" d="M130.8,141.7C130.8,141.7,130.8,141.7,130.8,141.7C130.6,141.7,130.5,141.8,130.8,141.7z"/>
	<g>
		<path fill="#FCBE00" stroke="#FCBE00" stroke-width="1.3944" d="M190.5,31.2c-1-3.4-1.6-5.2-3.6-8.4c-1.7-3-3-4.8-8.3-8.1
			c-5.3-3.3-10.8-5.3-16.9-6.1c-6.1-0.8-9.7-0.5-15.2-0.5c-5.5,0-15,0.3-15,0.3s-0.7,0.1-1.3,0.2c-0.2,0,0.1,0.6-0.4,0.6
			c-1.2,0-2,0-2.4,0.1c-0.2,0.3,0.1,0.8,0.1,0.8s-1.7,0-3,0.2c-1.8,0.2-1.8,2.2-2.8,2.3c-1,0.2-1.2,1.2-1.3,1.6
			c0.1,0.3,0.6,0.2,1,0.2c0.1,0.2,0.1,0.6-0.8,0.6c-0.5,0-1.1,0.1-1.4,0.3c-1.1,0.7-1.6,1.6-1.8,2.7c-0.2,1.6-1.3,5.4-0.4,6.8
			c0.7,1.1,1.8,2.3,4,2.2c1.9-0.1,2.7,0.1,3.5,0.6c0.8,0.5,0,1.1,2.8,1.5c2.8,0.3,28.3,0.3,33.2,6.1c1.3,1.5,3,2.5,1.9,5.6
			c-1,2.8-5,9.7-17.9,12.4c-1,0.3-1.5,0.6-1.7,0.8c1.4-0.1,7.2-0.6,12.4-3.3c4.5-2.3,5.2-3.2,6.5-4.5c0.9-0.9,1.5-1.3,2.8-3.3
			c1.2-2,1.7-0.8,1.1,0.1c-0.5,0.9-2,4-4.9,6.1c-2.9,2.2-6.1,3.7-9.4,5c-3.3,1.3-2.7,0.7-5.3,1.4c2.7-0.3,2.2,0,2.3,0.3
			c0,1-0.4,1.2-2.4,1.6c-2.7,0.6-1.5,1.7,1.1,1.4c1.7-0.2,4.9-1.1,6-1.3c2-0.5,1.6-0.6,2.9-0.8c1.1-0.2,0.9-0.1,0.5,0.7
			c-0.2,0.3-0.4,0.6-0.6,0.8l0,0c0,0-2.2,1.7-3.6,2.2c-1.4,0.4,1.9-0.3,3.2-0.3c0.3,0,0.5,0,0.8,0c1.2,0.1,2.6-0.2,4,0.5
			c2,0.9,2.7,1.4,0.8,2.5c-2.2,1.3-3.8,1.1-2.7,2.7c0.3,0.4,1.6,0,3.5-0.8c1,0,0.1,0.8-0.5,1.6c0.4,0.5,7-2.9,7-2.9s16.5-9.4,20-16
			c1.5-2.8,3.2-5,3.5-9.2C191.5,34.4,191.5,34.6,190.5,31.2z"/>
	</g>
	<g>
		<path fill="#FFFFFF" d="M44.1,229.3c0,0.7,0,1.5,0.1,2.2H43v-1.7h0c-0.4,0.9-1.1,1.9-3.1,1.9c-2.4,0-3.3-1.6-3.3-3.7V222h1.2v5.8
			c0,1.8,0.6,2.9,2.3,2.9c2.2,0,2.9-1.9,2.9-3.5V222h1.2V229.3z"/>
		<path fill="#FFFFFF" d="M46.8,224.3c0-0.7,0-1.5-0.1-2.2h1.2v1.7h0c0.4-0.9,1.1-1.9,3.1-1.9c2.4,0,3.3,1.6,3.3,3.7v6.1h-1.2v-5.8
			c0-1.8-0.6-2.9-2.3-2.9c-2.2,0-2.9,1.9-2.9,3.5v5.3h-1.2V224.3z"/>
		<path fill="#FFFFFF" d="M61.8,217.6H63v6.1h0c0.2-0.5,1.1-1.8,3-1.8c2.9,0,4,2.1,4,5c0,2.8-1.3,5-4,5c-1.4,0-2.4-0.5-3-1.7h0v1.5
			h-1.2V217.6z M65.9,222.8c-2.2,0-2.9,2.2-2.9,4c0,1.7,0.7,4,2.9,4c2.3,0,2.9-2.1,2.9-4C68.8,225,68.2,222.8,65.9,222.8z"/>
		<path fill="#FFFFFF" d="M77.7,230L77.7,230c-0.6,1.1-1.9,1.8-3.1,1.8c-2.8,0-3.2-1.8-3.2-2.7c0-3.2,3.5-3.3,6-3.3h0.2v-0.5
			c0-1.6-0.6-2.4-2.2-2.4c-1,0-2,0.2-2.9,0.8v-1.1c0.7-0.4,2-0.7,2.9-0.7c2.4,0,3.4,1.1,3.4,3.5v4.2c0,0.8,0,1.3,0.1,2h-1.2V230z
			 M77.6,226.8h-0.3c-2.1,0-4.6,0.2-4.6,2.3c0,1.2,0.9,1.7,2,1.7c2.8,0,2.9-2.4,2.9-3.4V226.8z"/>
		<path fill="#FFFFFF" d="M81.3,224.3c0-0.7,0-1.5-0.1-2.2h1.2v1.7h0c0.4-0.9,1.1-1.9,3.1-1.9c2.4,0,3.3,1.6,3.3,3.7v6.1h-1.2v-5.8
			c0-1.8-0.6-2.9-2.3-2.9c-2.2,0-2.9,1.9-2.9,3.5v5.3h-1.2V224.3z"/>
		<path fill="#FFFFFF" d="M97.8,223.3c-0.6-0.3-1.4-0.5-2.1-0.5c-2.3,0-3.7,1.7-3.7,4c0,2.2,1.3,4,3.5,4c0.8,0,1.5-0.2,2.2-0.4
			l0.1,1.1c-0.8,0.3-1.6,0.3-2.5,0.3c-3.1,0-4.7-2.3-4.7-5c0-2.9,1.9-5,4.8-5c1.2,0,2,0.3,2.3,0.4L97.8,223.3z"/>
		<path fill="#FFFFFF" d="M103.4,221.8c3.1,0,4.5,2.4,4.5,5c0,2.6-1.4,5-4.5,5c-3.1,0-4.5-2.4-4.5-5
			C98.9,224.2,100.3,221.8,103.4,221.8z M103.4,230.8c2.1,0,3.2-1.8,3.2-4c0-2.2-1.1-4-3.2-4c-2.1,0-3.2,1.8-3.2,4
			C100.2,229,101.3,230.8,103.4,230.8z"/>
		<path fill="#FFFFFF" d="M121.3,231.3c-0.8,0.3-1.9,0.5-2.8,0.5c-3.2,0-4.4-2.1-4.4-5c0-2.9,1.6-5,4.1-5c2.7,0,3.9,2.2,3.9,4.7v0.6
			h-6.7c0,2,1.1,3.6,3.2,3.6c0.9,0,2.2-0.4,2.7-0.7V231.3z M120.7,226.1c0-1.7-0.7-3.3-2.5-3.3c-1.8,0-2.9,1.7-2.9,3.3H120.7z"/>
		<path fill="#FFFFFF" d="M123.9,224.3c0-0.7,0-1.5-0.1-2.2h1.2v1.7h0c0.4-0.9,1.1-1.9,3.1-1.9c2.4,0,3.3,1.6,3.3,3.7v6.1h-1.2v-5.8
			c0-1.8-0.6-2.9-2.3-2.9c-2.2,0-2.9,1.9-2.9,3.5v5.3h-1.2V224.3z"/>
		<path fill="#FFFFFF" d="M138.3,223.1h-2.2v6.2c0,0.9,0.3,1.6,1.3,1.6c0.5,0,0.8-0.1,1.1-0.2l0.1,1c-0.3,0.1-0.9,0.3-1.5,0.3
			c-2.1,0-2.2-1.4-2.2-3.2v-5.6H133v-1h1.9v-2.3l1.2-0.4v2.7h2.2V223.1z"/>
		<path fill="#FFFFFF" d="M140.1,224.2c0-1,0-1.4-0.1-2.1h1.2v1.8h0c0.4-1.1,1.3-2.1,2.5-2.1c0.3,0,0.6,0.1,0.8,0.1v1.2
			c-0.2-0.1-0.6-0.1-0.9-0.1c-1.9,0-2.4,2.1-2.4,3.8v4.7h-1.2V224.2z"/>
		<path fill="#FFFFFF" d="M152.6,231.3c-0.8,0.3-1.9,0.5-2.8,0.5c-3.2,0-4.4-2.1-4.4-5c0-2.9,1.6-5,4.1-5c2.7,0,3.9,2.2,3.9,4.7v0.6
			h-6.7c0,2,1.1,3.6,3.2,3.6c0.9,0,2.2-0.4,2.7-0.7V231.3z M152,226.1c0-1.7-0.7-3.3-2.5-3.3c-1.8,0-2.9,1.7-2.9,3.3H152z"/>
		<path fill="#FFFFFF" d="M160,222h1.2l-0.1,1.7h0c0.3-0.5,1-2,3.1-2c2.9,0,4,2.1,4,5c0,2.8-1.3,5-4,5c-1.5,0-2.4-0.6-3-1.8h0v5.5
			H160V222z M164.1,222.8c-2.1,0-2.9,2.2-2.9,4c0,1.7,0.7,4,2.9,4c2.3,0,2.9-2.1,2.9-4C167,225,166.4,222.8,164.1,222.8z"/>
		<path fill="#FFFFFF" d="M176.9,231.3c-0.8,0.3-1.9,0.5-2.8,0.5c-3.2,0-4.4-2.1-4.4-5c0-2.9,1.6-5,4.1-5c2.7,0,3.9,2.2,3.9,4.7v0.6
			H171c0,2,1.1,3.6,3.2,3.6c0.9,0,2.2-0.4,2.7-0.7V231.3z M176.3,226.1c0-1.7-0.7-3.3-2.5-3.3c-1.8,0-2.9,1.7-2.9,3.3H176.3z"/>
		<path fill="#FFFFFF" d="M179.5,224.2c0-1,0-1.4-0.1-2.1h1.2v1.8h0c0.4-1.1,1.3-2.1,2.5-2.1c0.3,0,0.6,0.1,0.8,0.1v1.2
			c-0.2-0.1-0.6-0.1-0.9-0.1c-1.9,0-2.4,2.1-2.4,3.8v4.7h-1.2V224.2z"/>
		<path fill="#FFFFFF" d="M184.8,230.2c0.7,0.4,1.6,0.6,2.5,0.6c1.1,0,2.2-0.6,2.2-1.7c0-2.3-4.7-1.9-4.7-4.7c0-1.9,1.6-2.6,3.2-2.6
			c0.5,0,1.5,0.1,2.4,0.4l-0.1,1c-0.6-0.3-1.5-0.4-2.2-0.4c-1.2,0-2.1,0.4-2.1,1.6c0,1.8,4.8,1.5,4.8,4.7c0,2-1.9,2.7-3.4,2.7
			c-0.9,0-1.9-0.1-2.7-0.4L184.8,230.2z"/>
		<path fill="#FFFFFF" d="M196.3,221.8c3.1,0,4.5,2.4,4.5,5c0,2.6-1.4,5-4.5,5c-3.1,0-4.5-2.4-4.5-5
			C191.8,224.2,193.2,221.8,196.3,221.8z M196.3,230.8c2.1,0,3.2-1.8,3.2-4c0-2.2-1.1-4-3.2-4c-2.1,0-3.2,1.8-3.2,4
			C193.1,229,194.3,230.8,196.3,230.8z"/>
		<path fill="#FFFFFF" d="M202.8,224.3c0-0.7,0-1.5-0.1-2.2h1.2v1.7h0c0.4-0.9,1.1-1.9,3.1-1.9c2.4,0,3.3,1.6,3.3,3.7v6.1h-1.2v-5.8
			c0-1.8-0.6-2.9-2.3-2.9c-2.2,0-2.9,1.9-2.9,3.5v5.3h-1.2V224.3z"/>
		<path fill="#FFFFFF" d="M218.6,230L218.6,230c-0.6,1.1-1.9,1.8-3.1,1.8c-2.8,0-3.2-1.8-3.2-2.7c0-3.2,3.5-3.3,6-3.3h0.2v-0.5
			c0-1.6-0.6-2.4-2.2-2.4c-1,0-2,0.2-2.9,0.8v-1.1c0.7-0.4,2-0.7,2.9-0.7c2.4,0,3.4,1.1,3.4,3.5v4.2c0,0.8,0,1.3,0.1,2h-1.2V230z
			 M218.5,226.8h-0.3c-2.1,0-4.6,0.2-4.6,2.3c0,1.2,0.9,1.7,2,1.7c2.8,0,2.9-2.4,2.9-3.4V226.8z"/>
		<path fill="#FFFFFF" d="M221.4,230.2c0.7,0.4,1.6,0.6,2.5,0.6c1.1,0,2.2-0.6,2.2-1.7c0-2.3-4.7-1.9-4.7-4.7c0-1.9,1.6-2.6,3.2-2.6
			c0.5,0,1.5,0.1,2.4,0.4l-0.1,1c-0.6-0.3-1.5-0.4-2.2-0.4c-1.2,0-2.1,0.4-2.1,1.6c0,1.8,4.8,1.5,4.8,4.7c0,2-1.9,2.7-3.4,2.7
			c-0.9,0-1.9-0.1-2.7-0.4L221.4,230.2z"/>
	</g>
	<g>
		<g>
			<path fill="#FFFFFF" d="M229.3,199.3c0-1.2,0.4-2.2,1.3-3c0.8-0.8,1.9-1.3,3-1.3s2.2,0.4,3,1.3c0.8,0.8,1.3,1.9,1.3,3
				c0,1.2-0.4,2.2-1.3,3c-0.8,0.8-1.9,1.3-3,1.3s-2.2-0.4-3-1.3C229.7,201.5,229.3,200.5,229.3,199.3z M237.3,199.3
				c0-1-0.4-1.9-1.1-2.7c-0.7-0.7-1.6-1.1-2.7-1.1c-1,0-1.9,0.4-2.7,1.1c-0.7,0.7-1.1,1.6-1.1,2.7c0,1,0.4,1.9,1.1,2.7
				c0.7,0.7,1.6,1.1,2.7,1.1c1,0,1.9-0.4,2.7-1.1C237,201.2,237.3,200.3,237.3,199.3z M231.8,197.1h1.9c0.5,0,0.9,0.1,1.1,0.3
				c0.3,0.2,0.4,0.5,0.4,0.9c0,0.7-0.4,1.1-1.2,1.3c0.3,0.2,0.6,0.4,0.7,0.6c0.1,0.2,0.4,0.7,0.7,1.5h-0.7c-0.4-0.9-0.7-1.4-1-1.7
				c-0.2-0.2-0.6-0.3-1.1-0.3h-0.3v2h-0.6V197.1z M232.4,199.2h0.8c0.5,0,0.9-0.1,1.1-0.2c0.2-0.1,0.3-0.3,0.3-0.7
				c0-0.3-0.1-0.5-0.3-0.6c-0.2-0.1-0.6-0.2-1.1-0.2h-0.8V199.2z"/>
		</g>
	</g>
</g>
</svg>
